<?xml version="1.0" encoding="utf-8"?>
<!-- Generator: Adobe Illustrator 25.0.1, SVG Export Plug-In . SVG Version: 6.00 Build 0)  -->
<svg version="1.1" id="Layer_1" xmlns="http://www.w3.org/2000/svg" xmlns:xlink="http://www.w3.org/1999/xlink" x="0px" y="0px"
	 viewBox="0 0 380 200" style="enable-background:new 0 0 380 200;" xml:space="preserve">
<style type="text/css">
	.st0{fill:#394FA2;}
	.st1{fill:#FFFFFF;}
	.st2{font-family:'Avenir-Roman';}
	.st3{font-size:48px;}
	.st4{font-size:18px;}
</style>
<g>
	<g>
		<path class="st0" d="M333.3,197.4H45.9c-8.2,0-14.8-6.6-14.8-14.8V18.2c0-8.2,6.6-14.8,14.8-14.8h287.4c8.2,0,14.8,6.6,14.8,14.8
			v164.4C348.1,190.8,341.5,197.4,333.3,197.4z"/>
	</g>
	<text transform="matrix(1 0 0 1 67.297 159.4164)" class="st1 st2 st3">HERITAGE</text>
	<text transform="matrix(1 0 0 1 68.129 179.6743)" class="st1 st2 st4">Maintenance Company, Inc.</text>
	
		<rect x="157.1" y="35.4" transform="matrix(0.7071 0.7071 -0.7071 0.7071 103.5528 -114.1656)" class="st1" width="65" height="65"/>
	
		<rect x="173.1" y="54.4" transform="matrix(0.7071 0.7071 -0.7071 0.7071 105.6741 -113.287)" class="st0" width="33" height="33"/>
	<rect x="166.1" y="46.4" class="st1" width="47" height="25"/>
</g>
</svg>
